# Blender 4.5.1 LTS
# www.blender.org
mtllib Pizon.mtl
o Cylinder
v -3.623386 -2.025367 -0.596086
v 1.343949 0.706047 -1.030824
v -2.686923 -2.535233 -0.725163
v 1.680959 0.191629 -0.725163
v -4.070848 -1.035920 -0.725163
v 0.637474 1.668247 -0.725163
v 3.167412 0.288760 0.000000
v 0.285969 -0.217882 -1.450327
v -0.189094 -2.563115 -0.599352
v -0.496777 0.764409 -0.725163
v -6.945938 -1.522682 0.000000
v -0.592884 -2.552853 -0.565397
v -2.283812 -0.135756 -0.725164
v -1.600007 -1.068368 -1.937990
v -2.686923 -2.535233 0.000000
v 1.680959 0.191629 0.000000
v -0.189094 -2.563115 -0.452287
v -0.592884 -2.552853 -0.452287
v 0.312339 -1.814516 -1.263527
v -1.153591 -2.550400 -0.933007
v 0.379741 -2.565567 0.000000
v -1.153591 -2.550400 0.000000
v -0.396169 -3.903466 -0.517331
v -0.496777 0.764409 0.000000
v 0.637475 1.668246 0.000000
v -4.070848 -1.035920 0.000000
v -2.283812 -0.135756 0.000000
v -3.623386 -2.025367 0.596086
v 1.343949 0.706047 1.030824
v -2.686923 -2.535233 0.725163
v 1.680959 0.191629 0.725163
v -4.070848 -1.035920 0.725163
v 0.637474 1.668247 0.725163
v 0.285969 -0.217882 1.450327
v -0.189094 -2.563115 0.599352
v -0.496777 0.764409 0.725163
v -0.592884 -2.552853 0.565397
v -2.283812 -0.135756 0.725164
v -1.600007 -1.068368 1.937990
v -0.189094 -2.563115 0.452287
v -0.592884 -2.552853 0.452287
v 0.312339 -1.814516 1.263527
v -1.153591 -2.550400 0.933007
v -0.396169 -3.903466 0.517331
v 1.962240 0.757466 0.720046
v 2.309430 0.442815 -0.459239
v 1.983146 1.281892 0.000000
v 1.817872 1.329344 0.414721
v 2.116462 0.365690 0.000000
v 2.052009 0.764932 -0.674925
v 2.265754 0.425359 0.477720
v 1.907540 1.303600 -0.391139
vn 0.4852 -0.1186 -0.8663
vn -0.6232 0.7821 -0.0000
vn -0.1400 0.3780 -0.9152
vn 0.4527 -0.2172 -0.8648
vn 0.3526 0.5084 -0.7856
vn 0.2760 0.9612 -0.0000
vn -0.1946 0.6201 -0.7600
vn -0.4499 0.8931 -0.0000
vn 0.1982 -0.3272 -0.9239
vn -0.1908 -0.1032 -0.9762
vn -0.2313 -0.9729 -0.0000
vn -0.2041 -0.2168 -0.9546
vn -0.2228 -0.5179 -0.8260
vn -0.4250 0.2417 -0.8723
vn -0.0099 -1.0000 -0.0000
vn -0.9896 -0.1441 -0.0000
vn 0.8637 -0.4611 -0.2034
vn 0.1919 -0.7882 -0.5848
vn 0.4553 -0.7767 -0.4353
vn -0.0044 -1.0000 -0.0000
vn -0.0131 -0.9999 0.0001
vn -0.0849 -0.0478 -0.9952
vn -0.0012 -0.0483 0.9988
vn 0.9883 -0.1527 -0.0000
vn -0.0716 -0.9783 -0.1944
vn -0.1669 0.9860 -0.0000
vn 0.4852 -0.1186 0.8663
vn -0.1400 0.3780 0.9152
vn 0.4527 -0.2172 0.8648
vn 0.3526 0.5084 0.7856
vn -0.1946 0.6201 0.7600
vn 0.1982 -0.3272 0.9239
vn -0.1908 -0.1032 0.9762
vn -0.2041 -0.2168 0.9546
vn -0.2228 -0.5179 0.8260
vn -0.4250 0.2417 0.8723
vn 0.8637 -0.4611 0.2034
vn 0.1919 -0.7882 0.5848
vn 0.4553 -0.7767 0.4353
vn -0.0131 -0.9999 -0.0001
vn -0.0849 -0.0478 0.9952
vn -0.0012 -0.0483 -0.9988
vn -0.0722 -0.9867 0.1458
vn 0.6336 0.7556 0.1661
vn 0.3711 -0.9286 -0.0000
vn 0.4226 -0.2463 -0.8722
vn 0.4239 -0.2482 0.8710
vn 0.5947 0.4938 -0.6345
vn 0.5795 0.4928 0.6491
vn 0.6404 0.7637 -0.0814
vt 0.270779 0.685892
vt 0.292826 0.814453
vt 0.228340 0.835088
vt 0.137975 0.618896
vt 0.479238 0.671199
vt 0.465045 0.828362
vt 0.402650 0.801890
vt 0.411617 0.667628
vt 0.277060 0.885780
vt 0.241691 0.910632
vt 0.335983 0.901985
vt 0.350949 0.935442
vt 0.412549 0.464128
vt 0.274696 0.505058
vt 0.479238 0.459466
vt 0.119015 0.470109
vt 0.271727 0.276422
vt 0.190624 0.340219
vt 0.435485 0.000138
vt 0.139922 0.296365
vt 0.377455 0.273213
vt 0.445581 0.267402
vt 0.041191 0.430893
vt 0.085039 0.020086
vt 0.151490 0.020081
vt 0.118332 0.054564
vt 0.168925 0.873265
vt 0.000138 0.613353
vt 0.065006 0.553050
vt 0.074009 0.512836
vt 0.052574 0.552326
vt 0.063922 0.508649
vt 0.152421 0.089482
vt 0.084141 0.089482
vt 0.218665 0.999862
vt 0.193903 0.909430
vt 0.750085 0.313476
vt 0.617344 0.380560
vt 0.707562 0.164263
vt 0.772157 0.184893
vt 0.958485 0.328193
vt 0.890856 0.331696
vt 0.881872 0.197291
vt 0.944453 0.171217
vt 0.720222 0.093805
vt 0.757576 0.122947
vt 0.819862 0.104507
vt 0.828865 0.064063
vt 0.891802 0.535341
vt 0.753995 0.494353
vt 0.958485 0.540049
vt 0.598289 0.529242
vt 0.750814 0.722992
vt 0.914250 0.999408
vt 0.669784 0.659127
vt 0.619033 0.702924
vt 0.856533 0.726288
vt 0.924650 0.732173
vt 0.520430 0.568393
vt 0.016732 0.089477
vt 0.050024 0.054998
vt 0.083182 0.089482
vt 0.479515 0.385954
vt 0.648475 0.126768
vt 0.544334 0.446302
vt 0.553309 0.486504
vt 0.531903 0.447013
vt 0.543219 0.490683
vt 0.084114 0.020081
vt 0.015834 0.020081
vt 0.697353 0.000138
vt 0.671500 0.089377
s 0
usemtl Material.001
f 8/1/1 2/2/1 4/3/1 19/4/1
f 24/5/2 25/6/2 6/7/2 10/8/2
f 10/8/3 6/7/3 2/2/3 8/1/3
f 4/3/4 2/2/4 50/9/4 46/10/4
f 2/2/5 6/7/5 52/11/5 50/9/5
f 6/7/6 25/6/6 47/12/6 52/11/6
f 13/13/7 10/8/7 8/1/7 14/14/7
f 27/15/8 24/5/8 10/8/8 13/13/8
f 14/14/9 8/1/9 19/4/9 20/16/9
f 1/17/10 3/18/10 11/19/10
f 3/18/11 15/20/11 11/19/11
f 5/21/12 1/17/12 11/19/12
f 1/17/13 14/14/13 20/16/13 3/18/13
f 26/22/8 27/15/8 13/13/8 5/21/8
f 5/21/14 13/13/14 14/14/14 1/17/14
f 3/18/15 20/16/15 22/23/15 15/20/15
f 18/24/16 12/25/16 23/26/16
f 19/4/17 4/3/17 16/27/17 21/28/17
f 9/29/18 12/30/18 20/16/18 19/4/18
f 17/31/19 9/29/19 19/4/19 21/28/19
f 12/30/20 18/32/20 22/23/20 20/16/20
f 18/32/21 17/31/21 21/28/21 22/23/21
f 12/25/22 9/33/22 23/26/22
f 17/34/23 18/24/23 23/26/23
f 9/33/24 17/34/24 23/26/24
f 7/35/25 49/36/25 46/10/25
f 11/19/26 26/22/26 5/21/26
f 34/37/27 42/38/27 31/39/27 29/40/27
f 24/41/2 36/42/2 33/43/2 25/44/2
f 36/42/28 34/37/28 29/40/28 33/43/28
f 31/39/29 51/45/29 45/46/29 29/40/29
f 29/40/30 45/46/30 48/47/30 33/43/30
f 33/43/6 48/47/6 47/48/6 25/44/6
f 38/49/31 39/50/31 34/37/31 36/42/31
f 27/51/8 38/49/8 36/42/8 24/41/8
f 39/50/32 43/52/32 42/38/32 34/37/32
f 28/53/33 11/54/33 30/55/33
f 30/55/11 11/54/11 15/56/11
f 32/57/34 11/54/34 28/53/34
f 28/53/35 30/55/35 43/52/35 39/50/35
f 26/58/8 32/57/8 38/49/8 27/51/8
f 32/57/36 28/53/36 39/50/36 38/49/36
f 30/55/15 15/56/15 22/59/15 43/52/15
f 41/60/16 44/61/16 37/62/16
f 42/38/37 21/63/37 16/64/37 31/39/37
f 35/65/38 42/38/38 43/52/38 37/66/38
f 40/67/39 21/63/39 42/38/39 35/65/39
f 37/66/20 43/52/20 22/59/20 41/68/20
f 41/68/40 22/59/40 21/63/40 40/67/40
f 37/62/41 44/61/41 35/69/41
f 40/70/42 44/61/42 41/60/42
f 35/69/24 44/61/24 40/70/24
f 7/71/43 51/45/43 49/72/43
f 11/54/26 32/57/26 26/58/26
f 47/48/44 48/47/44 7/71/44
f 46/10/45 49/36/45 16/27/45 4/3/45
f 49/72/45 51/45/45 31/39/45 16/64/45
f 46/10/46 50/9/46 7/35/46
f 45/46/47 51/45/47 7/71/47
f 50/9/48 52/11/48 7/35/48
f 48/47/49 45/46/49 7/71/49
f 52/11/50 47/12/50 7/35/50
